:FULLY-SPECIFIED
:FORCE-ALL-JOINTS-BE-3DOF
:DEGREES
815
root 1.92819 16.6181 22.5916 4.9515 0.218018 -6.92603
lfemur -37.3198 -1.74202 2.52623
ltibia 22.3526 -0 0
lfoot -9.966 11.9034 0.447375
ltoes 18.5519 -0 0
rfemur 3.58216 5.46559 22.8233
rtibia 18.8791 -0 0
rfoot -24.8643 -14.0113 -0.800588
rtoes -24.8485 0 0
lowerback 0.389558 6.51891 5.81961
upperback -0.260452 8.72185 -0.351952
thorax 0.427998 4.36763 -3.49138
lowerneck -5.56676 -1.69545 2.9478
upperneck -0.618762 -2.45434 1.53163
head 0.70282 -1.20625 -0.0651475
lclavicle -2.44838e-14 1.44414e-15 2.39038e-32
lhumerus -53.5852 -6.64042 91.1653
lradius 54.4867 -0 0
lwrist 20.0464 0 0
lhand -8.24024 5.43169 -0.0086191
lfingers 7.12502 -0 0
lthumb 17.6774 34.6434 -0.00981398
rclavicle -2.44838e-14 1.44414e-15 2.39038e-32
rhumerus -31.06 46.5608 -112.438
rradius 68.7214 -0 0
rwrist -1.99649 0 0
rhand -8.25098 -23.7283 0.116283
rfingers 7.12502 -0 0
rthumb 17.667 -52.9483 0.11866
816
root 1.96714 16.61 22.7477 4.95039 -0.885478 -7.13844
lfemur -37.0127 -1.48079 2.97925
ltibia 20.7807 -0 0
lfoot -9.44168 12.9481 0.354183
ltoes 18.9114 -0 0
rfemur 4.31846 5.80483 22.8665
rtibia 18.3282 -0 0
rfoot -24.4617 -13.8893 -0.721877
rtoes -25.1587 0 0
lowerback 0.30948 6.61756 5.8995
upperback -0.271313 8.84904 -0.276675
thorax 0.473384 4.432 -3.44746
lowerneck -5.54251 -1.61705 3.04255
upperneck -0.496832 -2.35756 1.48658
head 0.736785 -1.15678 -0.0933846
lclavicle -1.84779e-14 1.16485e-15 3.71686e-32
lhumerus -53.5141 -6.54592 91.0512
lradius 53.8674 -0 0
lwrist 19.6402 0 0
lhand -8.00464 5.44358 -0.0043835
lfingers 7.12502 -0 0
lthumb 17.9041 34.6351 -0.00551773
rclavicle -1.84779e-14 1.16485e-15 3.71686e-32
rhumerus -30.7042 46.4419 -111.801
rradius 68.4211 -0 0
rwrist -2.21205 0 0
rhand -7.71935 -23.4114 0.0834026
rfingers 7.12502 -0 0
rthumb 18.1793 -52.5982 0.0839252
817
root 2.00817 16.6016 22.9055 4.91998 -1.89993 -7.31552
lfemur -36.7052 -1.25142 3.34083
ltibia 19.4152 -0 0
lfoot -8.94711 13.8049 0.257888
ltoes 19.1557 -0 0
rfemur 4.92877 6.0797 22.8369
rtibia 18.0296 -0 0
rfoot -23.9247 -13.6718 -0.603786
rtoes -25.4309 0 0
lowerback 0.231935 6.70259 5.95545
upperback -0.282291 8.95796 -0.203486
thorax 0.512693 4.48702 -3.39365
lowerneck -5.52328 -1.552 3.12875
upperneck -0.352644 -2.27871 1.44474
head 0.779131 -1.11582 -0.120313
lclavicle -1.29449e-14 8.78593e-16 3.65459e-32
lhumerus -53.4569 -6.45033 90.9283
lradius 53.3064 -0 0
lwrist 19.2699 0 0
lhand -7.77841 5.45421 -0.00107324
lfingers 7.12502 -0 0
lthumb 18.1218 34.6263 -0.00206602
rclavicle -1.29449e-14 8.78593e-16 3.65459e-32
rhumerus -30.3697 46.2504 -111.088
rradius 68.1006 -0 0
rwrist -2.37405 0 0
rhand -7.32856 -23.1357 0.0530056
rfingers 7.12502 -0 0
rthumb 18.5557 -52.2951 0.0521956
818
root 2.05133 16.5929 23.065 4.85625 -2.82226 -7.45139
lfemur -36.4007 -1.06153 3.60023
ltibia 18.2848 -0 0
lfoot -8.48596 14.4442 0.163354
ltoes 19.2689 -0 0
rfemur 5.39652 6.28689 22.724
rtibia 18.0101 -0 0
rfoot -23.2406 -13.3438 -0.444302
rtoes -25.659 0 0
lowerback 0.157525 6.77209 5.98541
upperback -0.293246 9.04611 -0.13248
thorax 0.545243 4.53141 -3.32908
lowerneck -5.50988 -1.50143 3.20545
upperneck -0.183994 -2.21934 1.40607
head 0.83069 -1.08413 -0.145903
lclavicle -7.99126e-15 5.87574e-16 2.61015e-32
lhumerus -53.4154 -6.35331 90.7958
lradius 52.8114 -0 0
lwrist 18.9434 0 0
lhand -7.56212 5.46522 0.000987108
lfingers 7.12502 -0 0
lthumb 18.33 34.6188 0.000225037
rclavicle -7.99126e-15 5.87574e-16 2.61015e-32
rhumerus -30.0638 45.9786 -110.297
rradius 67.7575 -0 0
rwrist -2.47634 0 0
rhand -7.09576 -22.9083 0.0275279
rfingers 7.12502 -0 0
rthumb 18.7798 -52.0471 0.0260892
819
root 2.09664 16.5839 23.2261 4.75515 -3.64932 -7.54016
lfemur -36.1022 -0.918504 3.74673
ltibia 17.418 -0 0
lfoot -8.06182 14.8365 0.0756779
ltoes 19.2349 -0 0
rfemur 5.70522 6.42253 22.5181
rtibia 18.2969 -0 0
rfoot -22.3964 -12.8901 -0.242733
rtoes -25.837 0 0
lowerback 0.0868638 6.82409 5.98734
upperback -0.30404 9.11099 -0.0637514
thorax 0.570343 4.56391 -3.2529
lowerneck -5.50312 -1.46647 3.2717
upperneck 0.0113207 -2.18102 1.37048
head 0.892294 -1.06244 -0.170134
lclavicle -3.72359e-15 2.9398e-16 1.15164e-32
lhumerus -53.3912 -6.25455 90.6526
lradius 52.3904 -0 0
lwrist 18.6688 0 0
lhand -7.35634 5.47825 0.0014607
lfingers 7.12502 -0 0
lthumb 18.528 34.6143 0.00102686
rclavicle -3.72359e-15 2.9398e-16 1.15164e-32
rhumerus -29.7951 45.6186 -109.425
rradius 67.3895 -0 0
rwrist -2.51278 0 0
rhand -7.03795 -22.7364 0.00922425
rfingers 7.12502 -0 0
rthumb 18.8351 -51.862 0.00801697
820
root 2.14416 16.5748 23.3889 4.61266 -4.37788 352.424
lfemur -35.8129 -0.829675 3.76948
ltibia 16.8436 0 0
lfoot -7.6782 14.9523 0
ltoes 19.0378 0 0
rfemur 5.83887 6.48206 22.2095
rtibia 18.917 0 0
rfoot -21.3786 -12.2951 0
rtoes -25.9589 0 0
lowerback 0.0205861 6.85666 5.95921
upperback -0.314538 9.1501 0.00260752
thorax 0.58729 4.58326 -3.16423
lowerneck -5.50381 -1.44827 3.32656
upperneck 0.235501 -2.16531 1.33786
head 0.964776 -1.05151 -0.192986
lclavicle -2.48481e-16 0 0
lhumerus -53.3862 -6.15374 90.498
lradius 52.0513 0 0
lwrist 18.4542 0 0
lhand -7.16163 5.49493 0
lfingers 7.12502 0 0
lthumb 18.7154 34.6146 0
rclavicle -2.48481e-16 0 0
rhumerus -29.5725 45.1631 -108.471
rradius 66.9941 0 0
rwrist -2.47723 0 0
rhand -7.17223 -22.6272 0
rfingers 7.12502 0 0
rthumb 18.7052 -771.748 0
